<?xml version="1.0" encoding="utf-8"?>
<!-- Generator: Adobe Illustrator 21.1.0, SVG Export Plug-In . SVG Version: 6.00 Build 0)  -->
<svg version="1.1" id="Layer_1" xmlns="http://www.w3.org/2000/svg" xmlns:xlink="http://www.w3.org/1999/xlink" x="0px" y="0px"
	 viewBox="0 0 2500 3666" style="enable-background:new 0 0 2500 3666;" xml:space="preserve">
<style type="text/css">
	.st0{fill:#F5F5FA;}
	.st1{fill:url(#SVGID_1_);}
	.st2{fill:url(#Shape_2_);}
</style>
<title>Group 40</title>
<desc>Created with Sketch.</desc>
<g id="Group-40">
	<g id="Group" transform="translate(91.000000, 0.000000)">
		<g id="Group-2" transform="translate(264.000000, 0.000000)">
			<circle id="Oval-2-Copy-17" class="st0" cx="240.1" cy="21" r="4"/>
			<circle id="Oval-2-Copy-18" class="st0" cx="265.4" cy="21" r="4"/>
			<circle id="Oval-2-Copy-19" class="st0" cx="289.7" cy="21" r="4"/>
			<circle id="Oval-2-Copy-20" class="st0" cx="315" cy="21" r="4"/>
			<circle id="Oval-2-Copy-21" class="st0" cx="340.3" cy="21" r="4"/>
			<circle id="Oval-2-Copy-22" class="st0" cx="364.6" cy="21" r="4"/>
			<circle id="Oval-2-Copy-23" class="st0" cx="389.9" cy="21" r="4"/>
			<circle id="Oval-2-Copy-24" class="st0" cx="415.2" cy="21" r="4"/>
			<circle id="Oval-2-Copy-25" class="st0" cx="439.5" cy="21" r="4"/>
			<circle id="Oval-2-Copy-26" class="st0" cx="464.8" cy="21" r="4"/>
			<circle id="Oval-2-Copy-27" class="st0" cx="490.1" cy="21" r="4"/>
			<circle id="Oval-2-Copy-28" class="st0" cx="514.4" cy="21" r="4"/>
			<circle id="Oval-2-Copy-29" class="st0" cx="539.7" cy="21" r="4"/>
			<circle id="Oval-2-Copy-30" class="st0" cx="565" cy="21" r="4"/>
			<circle id="Oval-2-Copy-31" class="st0" cx="589.3" cy="21" r="4"/>
			<circle id="Oval-2-Copy-32" class="st0" cx="614.6" cy="21" r="4"/>
			<circle id="Oval-2-Copy-33" class="st0" cx="639.9" cy="21" r="4"/>
			<circle id="Oval-2-Copy-17_1_" class="st0" cx="240.1" cy="70.6" r="4"/>
			<circle id="Oval-2-Copy-18_1_" class="st0" cx="265.4" cy="70.6" r="4"/>
			<circle id="Oval-2-Copy-19_1_" class="st0" cx="289.7" cy="70.6" r="4"/>
			<circle id="Oval-2-Copy-20_1_" class="st0" cx="315" cy="70.6" r="4"/>
			<circle id="Oval-2-Copy-21_1_" class="st0" cx="340.3" cy="70.6" r="4"/>
			<circle id="Oval-2-Copy-22_1_" class="st0" cx="364.6" cy="70.6" r="4"/>
			<circle id="Oval-2-Copy-23_1_" class="st0" cx="389.9" cy="70.6" r="4"/>
			<circle id="Oval-2-Copy-24_1_" class="st0" cx="415.2" cy="70.6" r="4"/>
			<circle id="Oval-2-Copy-25_1_" class="st0" cx="439.5" cy="70.6" r="4"/>
			<circle id="Oval-2-Copy-26_1_" class="st0" cx="464.8" cy="70.6" r="4"/>
			<circle id="Oval-2-Copy-27_1_" class="st0" cx="490.1" cy="70.6" r="4"/>
			<circle id="Oval-2-Copy-28_1_" class="st0" cx="514.4" cy="70.6" r="4"/>
			<circle id="Oval-2-Copy-29_1_" class="st0" cx="539.7" cy="70.6" r="4"/>
			<circle id="Oval-2-Copy-30_1_" class="st0" cx="565" cy="70.6" r="4"/>
			<circle id="Oval-2-Copy-31_1_" class="st0" cx="589.3" cy="70.6" r="4"/>
			<circle id="Oval-2-Copy-32_1_" class="st0" cx="614.6" cy="70.6" r="4"/>
			<circle id="Oval-2-Copy-33_1_" class="st0" cx="639.9" cy="70.6" r="4"/>
			<circle id="Oval-2-Copy-17_2_" class="st0" cx="240.1" cy="-4.3" r="4"/>
			<circle id="Oval-2-Copy-18_2_" class="st0" cx="265.4" cy="-4.3" r="4"/>
			<circle id="Oval-2-Copy-19_2_" class="st0" cx="289.7" cy="-4.3" r="4"/>
			<circle id="Oval-2-Copy-20_2_" class="st0" cx="315" cy="-4.3" r="4"/>
			<circle id="Oval-2-Copy-21_2_" class="st0" cx="340.3" cy="-4.3" r="4"/>
			<circle id="Oval-2-Copy-22_2_" class="st0" cx="364.6" cy="-4.3" r="4"/>
			<circle id="Oval-2-Copy-23_2_" class="st0" cx="389.9" cy="-4.3" r="4"/>
			<circle id="Oval-2-Copy-24_2_" class="st0" cx="415.2" cy="-4.3" r="4"/>
			<circle id="Oval-2-Copy-25_2_" class="st0" cx="439.5" cy="-4.3" r="4"/>
			<circle id="Oval-2-Copy-26_2_" class="st0" cx="464.8" cy="-4.3" r="4"/>
			<circle id="Oval-2-Copy-27_2_" class="st0" cx="490.1" cy="-4.3" r="4"/>
			<circle id="Oval-2-Copy-28_2_" class="st0" cx="514.4" cy="-4.3" r="4"/>
			<circle id="Oval-2-Copy-29_2_" class="st0" cx="539.7" cy="-4.3" r="4"/>
			<circle id="Oval-2-Copy-30_2_" class="st0" cx="565" cy="-4.3" r="4"/>
			<circle id="Oval-2-Copy-31_2_" class="st0" cx="589.3" cy="-4.3" r="4"/>
			<circle id="Oval-2-Copy-32_2_" class="st0" cx="614.6" cy="-4.3" r="4"/>
			<circle id="Oval-2-Copy-33_2_" class="st0" cx="639.9" cy="-4.3" r="4"/>
			<circle id="Oval-2-Copy-17_3_" class="st0" cx="240.1" cy="46.3" r="4"/>
			<circle id="Oval-2-Copy-18_3_" class="st0" cx="265.4" cy="46.3" r="4"/>
			<circle id="Oval-2-Copy-19_3_" class="st0" cx="289.7" cy="46.3" r="4"/>
			<circle id="Oval-2-Copy-20_3_" class="st0" cx="315" cy="46.3" r="4"/>
			<circle id="Oval-2-Copy-21_3_" class="st0" cx="340.3" cy="46.3" r="4"/>
			<circle id="Oval-2-Copy-22_3_" class="st0" cx="364.6" cy="46.3" r="4"/>
			<circle id="Oval-2-Copy-23_3_" class="st0" cx="389.9" cy="46.3" r="4"/>
			<circle id="Oval-2-Copy-24_3_" class="st0" cx="415.2" cy="46.3" r="4"/>
			<circle id="Oval-2-Copy-25_3_" class="st0" cx="439.5" cy="46.3" r="4"/>
			<circle id="Oval-2-Copy-26_3_" class="st0" cx="464.8" cy="46.3" r="4"/>
			<circle id="Oval-2-Copy-27_3_" class="st0" cx="490.1" cy="46.3" r="4"/>
			<circle id="Oval-2-Copy-28_3_" class="st0" cx="514.4" cy="46.3" r="4"/>
			<circle id="Oval-2-Copy-29_3_" class="st0" cx="539.7" cy="46.3" r="4"/>
			<circle id="Oval-2-Copy-30_3_" class="st0" cx="565" cy="46.3" r="4"/>
			<circle id="Oval-2-Copy-31_3_" class="st0" cx="589.3" cy="46.3" r="4"/>
			<circle id="Oval-2-Copy-32_3_" class="st0" cx="614.6" cy="46.3" r="4"/>
			<circle id="Oval-2-Copy-33_3_" class="st0" cx="639.9" cy="46.3" r="4"/>
			<circle id="Oval-2-Copy-17_4_" class="st0" cx="240.1" cy="95.9" r="4"/>
			<circle id="Oval-2-Copy-18_4_" class="st0" cx="265.4" cy="95.9" r="4"/>
			<circle id="Oval-2-Copy-19_4_" class="st0" cx="289.7" cy="95.9" r="4"/>
			<circle id="Oval-2-Copy-20_4_" class="st0" cx="315" cy="95.9" r="4"/>
			<circle id="Oval-2-Copy-21_4_" class="st0" cx="340.3" cy="95.9" r="4"/>
			<circle id="Oval-2-Copy-22_4_" class="st0" cx="364.6" cy="95.9" r="4"/>
			<circle id="Oval-2-Copy-23_4_" class="st0" cx="389.9" cy="95.9" r="4"/>
			<circle id="Oval-2-Copy-24_4_" class="st0" cx="415.2" cy="95.9" r="4"/>
			<circle id="Oval-2-Copy-25_4_" class="st0" cx="439.5" cy="95.9" r="4"/>
			<circle id="Oval-2-Copy-26_4_" class="st0" cx="464.8" cy="95.9" r="4"/>
			<circle id="Oval-2-Copy-27_4_" class="st0" cx="490.1" cy="95.9" r="4"/>
			<circle id="Oval-2-Copy-28_4_" class="st0" cx="514.4" cy="95.9" r="4"/>
			<circle id="Oval-2-Copy-29_4_" class="st0" cx="539.7" cy="95.9" r="4"/>
			<circle id="Oval-2-Copy-30_4_" class="st0" cx="565" cy="95.9" r="4"/>
			<circle id="Oval-2-Copy-31_4_" class="st0" cx="589.3" cy="95.9" r="4"/>
			<circle id="Oval-2-Copy-32_4_" class="st0" cx="614.6" cy="95.9" r="4"/>
			<circle id="Oval-2-Copy-33_4_" class="st0" cx="639.9" cy="95.9" r="4"/>
		</g>
		<linearGradient id="SVGID_1_" gradientUnits="userSpaceOnUse" x1="1160.505" y1="1130.2156" x2="1160.505" y2="273.5471">
			<stop  offset="0" style="stop-color:#FFFFFF"/>
			<stop  offset="1" style="stop-color:#F5F5FA"/>
		</linearGradient>
		<path class="st1" d="M2385.6,140.6c-160.7-134.4-370-158.9-562.3-84.5c-133,51.5-277.8,105.6-385.7,201.2
			c-65.1,57.7-107.1,166.2-186.7,209.9c-82.5,45.3-188,20.8-275.5,10.1C864.8,463.8,772,435,665.9,403.6
			c-105.2-31.1-220.4-30.6-329-46.7C202.8,337-42,323.7-87.4,494c-21.7,81.4,0,197.7,0,281.1c0,217.9,0,435.8,0,653.6
			c376.6-11.4,758.5-106.9,1116-221.6c172-55.2,321.2-130.6,468.5-234.4c144-101.4,236.3-79.5,347.7,45.4
			c99.6,111.6,225.7,148.6,373.7,141.2c49.8-2.5,162.1-1.8,190.4-52.5c10-17.9,0-76.2,0-95.7c0-192.7,0-385.4,0-578
			C2409,369.5,2440.8,186.1,2385.6,140.6z"/>
		<g id="Group-17" transform="translate(702.000000, 75.000000)">
			<polygon id="Fill-366" class="st0" points="257.9,20.8 274.4,-7.4 241.4,-7.4 			"/>
			<polygon id="Fill-368" class="st0" points="257.9,49.3 274.4,21.1 241.4,21.1 			"/>
			<polygon id="Fill-370" class="st0" points="257.9,77.3 274.4,49.1 241.4,49.1 			"/>
		</g>
	</g>
	<g id="Group-35" transform="translate(0.000000, 2301.000000)">
		
			<linearGradient id="Shape_2_" gradientUnits="userSpaceOnUse" x1="290.8842" y1="-365.6347" x2="290.8842" y2="-364.6566" gradientTransform="matrix(1437 0 0 -1169 -417158 -426319)">
			<stop  offset="0" style="stop-color:#FFFFFF"/>
			<stop  offset="1" style="stop-color:#F5F5FA"/>
		</linearGradient>
		<path id="Shape_1_" class="st2" d="M53.1,126.8c-147.7,313.6,36,959.6,532.2,1146.6s1162.8,88.8,1090.8-304.1
			C1604.2,572.6,269-332.2,53.1,126.8z"/>
		<g id="Group-17_1_" transform="translate(929.000000, 21.000000)">
			<polygon id="Fill-366_1_" class="st0" points="260.8,27.9 277.1,0 244.5,0 			"/>
			<polygon id="Fill-368_1_" class="st0" points="260.8,56 277.1,28.1 244.5,28.1 			"/>
			<polygon id="Fill-370_1_" class="st0" points="260.8,83.7 277.1,55.9 244.5,55.9 			"/>
		</g>
	</g>
</g>
</svg>
