<?xml version="1.0" encoding="UTF-8"?>
<svg width="99px" height="30px" viewBox="0 0 99 30" version="1.1" xmlns="http://www.w3.org/2000/svg" xmlns:xlink="http://www.w3.org/1999/xlink">
    <!-- Generator: sketchtool 49.3 (51167) - http://www.bohemiancoding.com/sketch -->
    <title>6553E44D-E376-4488-ACE0-51DB0631FF0D</title>
    <style>
    #Combined-Shape {
    fill: #3200C3;
   }</style>
    <desc>Created with sketchtool.</desc>
    <defs></defs>
    <g id="Page-1" stroke="none" stroke-width="1" fill="none" fill-rule="evenodd">
        <g id="Uranus" transform="translate(-375.000000, -5634.000000)" fill="#33334F">
            <g id="Group-Copy" transform="translate(375.000000, 5634.000000)">
                <path d="M13.7485616,29.9716364 C9.33657173,29.9716364 5.9421868,28.8290569 3.56530495,26.5438636 C1.1884231,24.2586704 0,20.8931131 0,16.4470909 L0,0 L7.59666283,0 L20.2266974,0 L27.8233602,0 L27.8233602,16.1672727 C27.8233602,20.7376592 26.6116347,24.180943 24.1881473,26.4972273 C21.7646599,28.8135116 18.2848328,29.9716364 13.7485616,29.9716364 Z M13.8365938,20.3181818 C17.4115095,20.3181818 20.3095512,17.418208 20.3095512,13.8409091 C20.3095512,10.2636101 17.4115095,7.36363636 13.8365938,7.36363636 C10.2616781,7.36363636 7.36363636,10.2636101 7.36363636,13.8409091 C7.36363636,17.418208 10.2616781,20.3181818 13.8365938,20.3181818 Z" id="Combined-Shape"></path>
                <path d="M43.05141,15.904168 C43.05141,17.2743958 42.5375746,18.4947549 41.6169527,19.3725571 C40.7819702,20.1433103 39.6686601,20.6143261 38.3198421,20.6143261 C36.863975,20.6143261 35.7292551,20.1004907 34.8942725,19.2655081 C34.05929,18.3877059 33.5454545,17.2101664 33.5454545,15.904168 L33.5454545,9.73814283 L35.8363042,9.73814283 L35.8363042,16.011217 C35.8363042,16.7605604 36.0718121,17.3814448 36.5214181,17.8310508 C36.9924339,18.3234765 37.5919086,18.5803942 38.3198421,18.5803942 C39.0691854,18.5803942 39.6686601,18.3020667 40.0968563,17.8524607 C40.5036426,17.4242645 40.7605604,16.80338 40.7605604,16.011217 L40.7605604,9.73814283 L43.05141,9.73814283 L43.05141,15.904168 Z M53.9799283,13.6775478 C53.9799283,14.5339402 53.7230106,15.3261031 53.230585,15.9898072 C52.888028,16.4394132 52.3956024,16.8676094 51.881767,17.1459369 L53.8086498,20.4430476 L51.1966531,20.4430476 L49.6765566,17.6383626 L46.8290519,17.6383626 L46.8290519,20.4430476 L44.5382023,20.4430476 L44.5382023,9.73814283 L49.8692449,9.73814283 C51.1752433,9.73814283 52.331373,10.2519783 53.0807163,11.1726001 C53.6587812,11.8363042 53.9799283,12.7141064 53.9799283,13.6775478 Z M46.8290519,11.7720747 L46.8290519,15.6044306 L49.7621958,15.6044306 C50.3830803,15.6044306 50.8540961,15.3903326 51.2180629,14.9621364 C51.5178002,14.5981696 51.6676689,14.1699734 51.6676689,13.6775478 C51.6676689,13.1423025 51.4963904,12.6712867 51.1538335,12.30732 C50.8326863,11.9433532 50.3616705,11.7720747 49.7621958,11.7720747 L46.8290519,11.7720747 Z M59.2562569,9.73814283 L61.5899262,9.73814283 L66.3429039,20.4430476 L63.859366,20.4430476 L63.0243834,18.5375746 L57.7575702,18.5375746 L56.9225877,20.4430476 L54.5032792,20.4430476 L59.2562569,9.73814283 Z M60.3053376,12.30732 L58.6353724,16.5036426 L62.1251714,16.5036426 L60.4552063,12.30732 L60.3053376,12.30732 Z M75.1946707,9.73814283 L77.4212909,9.73814283 L77.4212909,20.4430476 L75.3445393,20.4430476 L69.542481,13.4206301 L69.542481,20.4430476 L67.294451,20.4430476 L67.294451,9.73814283 L69.3712025,9.73814283 L75.1946707,16.7391506 L75.1946707,9.73814283 Z M88.4140386,15.904168 C88.4140386,17.2743958 87.9002032,18.4947549 86.9795814,19.3725571 C86.1445988,20.1433103 85.0312887,20.6143261 83.6824707,20.6143261 C82.2266037,20.6143261 81.0918838,20.1004907 80.2569012,19.2655081 C79.4219186,18.3877059 78.9080832,17.2101664 78.9080832,15.904168 L78.9080832,9.73814283 L81.1989328,9.73814283 L81.1989328,16.011217 C81.1989328,16.7605604 81.4344407,17.3814448 81.8840467,17.8310508 C82.3550625,18.3234765 82.9545372,18.5803942 83.6824707,18.5803942 C84.4318141,18.5803942 85.0312887,18.3020667 85.4594849,17.8524607 C85.8662713,17.4242645 86.123189,16.80338 86.123189,16.011217 L86.123189,9.73814283 L88.4140386,9.73814283 L88.4140386,15.904168 Z M89.4940446,12.5642377 C89.4940446,11.5579766 89.9008309,10.9156824 90.5217154,10.4232567 C91.3995176,9.75955264 92.7269258,9.54545455 94.0971536,9.54545455 C95.4887912,9.54545455 96.9232485,9.82378207 98.550394,10.5731254 L97.7368212,12.3929592 C96.4308229,11.8148944 95.3175128,11.5793865 94.1827929,11.5793865 C93.4762691,11.5793865 92.5984669,11.5579766 92.1060413,11.964763 C91.913353,12.1360415 91.806304,12.3501396 91.806304,12.5856475 C91.806304,12.8211554 91.8919432,13.0138437 92.0846315,13.1637124 C92.3201394,13.3349908 92.6841062,13.4634497 93.155122,13.5276791 L95.2746931,13.8916459 C96.3880032,14.0843342 97.4370839,14.4054813 98.1221978,15.0263658 C98.657443,15.5187914 99,16.2039053 99,17.1459369 C99,18.2378372 98.6360332,18.9657707 98.0365586,19.501016 C97.0731171,20.3574084 95.510201,20.6357359 93.8188261,20.6357359 C92.0632217,20.6357359 90.8642724,20.3574084 89.3227661,19.5652454 L90.0935192,17.6811822 C91.5279765,18.3448863 92.5984669,18.5589844 93.7974163,18.5589844 C94.9321362,18.5589844 95.7242991,18.4091157 96.1739051,18.1307882 C96.5378719,17.8952803 96.7305602,17.5741331 96.7305602,17.1887566 C96.7305602,16.8676094 96.5592817,16.6535113 96.3237738,16.5036426 C96.0026267,16.2681347 95.510201,16.1610857 94.9321362,16.0754465 L92.5556473,15.6472503 C91.5065667,15.4759718 90.7144037,15.112005 90.1791585,14.5339402 C89.7295525,14.0415146 89.4940446,13.3778105 89.4940446,12.5642377 Z" id="uranus-copy-2"></path>
            </g>
        </g>
    </g>
</svg>